<svg width="48" height="48" viewBox="0 0 48 48" fill="none" xmlns="http://www.w3.org/2000/svg">
<rect width="48" height="48" rx="24" fill="#161A1E"/>
<path d="M30.39 27.8645C30.0407 28.6384 29.8739 28.9835 29.4237 29.6679C28.7968 30.6229 27.9121 31.8121 26.8159 31.8221C25.8418 31.8313 25.5919 31.1888 24.2698 31.1959C22.9485 31.203 22.6723 31.8334 21.6982 31.8242C20.602 31.8143 19.7649 30.7407 19.1365 29.7851C17.3828 27.1141 17.1997 23.9801 18.2817 22.3145C19.0506 21.1302 20.264 20.4379 21.405 20.4379C22.5666 20.4379 23.2964 21.0748 24.2571 21.0748C25.1886 21.0748 25.7566 20.4372 27.0992 20.4372C28.1145 20.4372 29.1894 20.9896 29.9562 21.9446C27.4457 23.3205 27.8532 26.9053 30.39 27.8645Z" stroke="white" stroke-width="1.704" stroke-miterlimit="10" stroke-linecap="round"/>
<path d="M26.2056 17.8893C26.6671 17.2972 27.0171 16.4615 26.89 15.6074C26.136 15.6592 25.2556 16.1384 24.7408 16.7632C24.2737 17.3305 23.8881 18.1712 24.0379 18.9891C24.8601 19.0147 25.7114 18.5233 26.2056 17.8893Z" fill="white"/>
</svg>