<svg width="48" height="48" viewBox="0 0 48 48" fill="none" xmlns="http://www.w3.org/2000/svg">
<rect width="48" height="48" rx="24" fill="#335CA6"/>
<path d="M32.0001 24C31.9994 19.7444 28.6672 16.2342 24.4174 16.0121C20.1676 15.7901 16.4878 18.9341 16.0437 23.1664C15.5997 27.3988 18.5467 31.2381 22.7501 31.903V26.3125L20.7191 26.3125L20.7191 24H22.7501V22.2375C22.7501 20.2325 23.9446 19.125 25.7716 19.125C26.3716 19.1333 26.9702 19.1855 27.5626 19.281V21.25H26.5536C26.2053 21.2037 25.8549 21.3184 25.6013 21.5616C25.3477 21.8048 25.2184 22.1501 25.2501 22.5V24L27.4691 24L27.1141 26.3125H25.2501V31.903C29.1379 31.288 32.0007 27.9362 32.0001 24Z" fill="white"/>
</svg>