<svg width="48" height="48" viewBox="0 0 48 48" fill="none" xmlns="http://www.w3.org/2000/svg">
<rect width="48" height="48" rx="24" fill="#C71610"/>
<path d="M31.1866 22.6365L24.0276 22.6365V25.7045L28.0851 25.7045C27.4351 27.75 25.8351 28.432 23.9951 28.432C22.0358 28.4346 20.3073 27.1504 19.7442 25.2738C19.1811 23.3972 19.917 21.3735 21.554 20.297C23.191 19.2204 25.3406 19.3465 26.8406 20.607L29.0701 18.4835C26.6008 16.209 22.9207 15.8526 20.0608 17.6109C17.2009 19.3693 15.8579 22.814 16.7728 26.0441C17.6878 29.2742 20.6379 31.5028 23.9951 31.5C28.1306 31.5 31.8686 28.7725 31.1866 22.6365Z" fill="white"/>
</svg>