<svg width="299" height="48" viewBox="0 0 299 48" fill="none" xmlns="http://www.w3.org/2000/svg">
<g filter="url(#filter0_dd_17_135)">
<path d="M2 2H291C294.314 2 297 4.68629 297 8V40C297 43.3137 294.314 46 291 46H8.00001C4.6863 46 2 43.3137 2 40V2Z" fill="#E1E1FB"/>
<path d="M15.233 29L15.233 18.8182H16.4659L16.4659 23.3523H21.8949L21.8949 18.8182L23.1278 18.8182L23.1278 29H21.8949V24.446H16.4659V29H15.233ZM28.5394 29.1591C27.85 29.1591 27.2451 28.995 26.7248 28.6669C26.2077 28.3388 25.8034 27.8797 25.5117 27.2898C25.2234 26.6998 25.0792 26.0104 25.0792 25.2216C25.0792 24.4261 25.2234 23.7318 25.5117 23.1385C25.8034 22.5452 26.2077 22.0845 26.7248 21.7564C27.2451 21.4283 27.85 21.2642 28.5394 21.2642C29.2288 21.2642 29.832 21.4283 30.3491 21.7564C30.8694 22.0845 31.2738 22.5452 31.5621 23.1385C31.8538 23.7318 31.9996 24.4261 31.9996 25.2216C31.9996 26.0104 31.8538 26.6998 31.5621 27.2898C31.2738 27.8797 30.8694 28.3388 30.3491 28.6669C29.832 28.995 29.2288 29.1591 28.5394 29.1591ZM28.5394 28.1051C29.0631 28.1051 29.494 27.9709 29.832 27.7024C30.1701 27.4339 30.4203 27.081 30.5827 26.6435C30.7451 26.206 30.8263 25.732 30.8263 25.2216C30.8263 24.7112 30.7451 24.2356 30.5827 23.7947C30.4203 23.3539 30.1701 22.9976 29.832 22.7259C29.494 22.4541 29.0631 22.3182 28.5394 22.3182C28.0157 22.3182 27.5849 22.4541 27.2468 22.7259C26.9087 22.9976 26.6585 23.3539 26.4961 23.7947C26.3337 24.2356 26.2525 24.7112 26.2525 25.2216C26.2525 25.732 26.3337 26.206 26.4961 26.6435C26.6585 27.081 26.9087 27.4339 27.2468 27.7024C27.5849 27.9709 28.0157 28.1051 28.5394 28.1051ZM35.261 29L32.9343 21.3636H34.1673L35.8178 27.2102H35.8974L37.5281 21.3636H38.7809L40.3917 27.1903H40.4712L42.1218 21.3636H43.3548L41.0281 29H39.8746L38.2042 23.1335H38.0849L36.4144 29L35.261 29ZM51.7269 29.1591C51.0906 29.1591 50.5288 28.9983 50.0415 28.6768C49.5543 28.352 49.1732 27.8946 48.8981 27.3047C48.623 26.7114 48.4854 26.0104 48.4854 25.2017C48.4854 24.3996 48.623 23.7036 48.8981 23.1136C49.1732 22.5237 49.556 22.0679 50.0465 21.7464C50.5371 21.425 51.1038 21.2642 51.7468 21.2642C52.244 21.2642 52.6367 21.3471 52.9251 21.5128C53.2167 21.6752 53.4388 21.8608 53.5913 22.0696C53.747 22.2751 53.868 22.4441 53.9542 22.5767H54.0536V18.8182H55.2269L55.2269 29H54.0934V27.8267H53.9542C53.868 27.9659 53.7454 28.1416 53.5863 28.3537C53.4272 28.5625 53.2002 28.7498 52.9052 28.9155C52.6102 29.0779 52.2174 29.1591 51.7269 29.1591ZM51.886 28.1051C52.3567 28.1051 52.7544 27.9825 53.0792 27.7372C53.404 27.4886 53.6509 27.1456 53.82 26.7081C53.989 26.2673 54.0735 25.7585 54.0735 25.1818C54.0735 24.6117 53.9906 24.1129 53.8249 23.6854C53.6592 23.2545 53.4139 22.9197 53.0891 22.6811C52.7643 22.4392 52.3633 22.3182 51.886 22.3182C51.3888 22.3182 50.9746 22.4458 50.6431 22.701C50.315 22.9529 50.0681 23.2959 49.9023 23.7301C49.7399 24.161 49.6587 24.6449 49.6587 25.1818C49.6587 25.7254 49.7416 26.2192 49.9073 26.6634C50.0763 27.1042 50.3249 27.4555 50.6531 27.7173C50.9845 27.9759 51.3955 28.1051 51.886 28.1051ZM60.641 29.1591C59.9516 29.1591 59.3467 28.995 58.8263 28.6669C58.3093 28.3388 57.9049 27.8797 57.6133 27.2898C57.3249 26.6998 57.1808 26.0104 57.1808 25.2216C57.1808 24.4261 57.3249 23.7318 57.6133 23.1385C57.9049 22.5452 58.3093 22.0845 58.8263 21.7564C59.3467 21.4283 59.9516 21.2642 60.641 21.2642C61.3304 21.2642 61.9336 21.4283 62.4506 21.7564C62.971 22.0845 63.3754 22.5452 63.6637 23.1385C63.9554 23.7318 64.1012 24.4261 64.1012 25.2216C64.1012 26.0104 63.9554 26.6998 63.6637 27.2898C63.3754 27.8797 62.971 28.3388 62.4506 28.6669C61.9336 28.995 61.3304 29.1591 60.641 29.1591ZM60.641 28.1051C61.1647 28.1051 61.5955 27.9709 61.9336 27.7024C62.2717 27.4339 62.5219 27.081 62.6843 26.6435C62.8467 26.206 62.9279 25.732 62.9279 25.2216C62.9279 24.7112 62.8467 24.2356 62.6843 23.7947C62.5219 23.3539 62.2717 22.9976 61.9336 22.7259C61.5955 22.4541 61.1647 22.3182 60.641 22.3182C60.1173 22.3182 59.6864 22.4541 59.3484 22.7259C59.0103 22.9976 58.7601 23.3539 58.5977 23.7947C58.4353 24.2356 58.354 24.7112 58.354 25.2216C58.354 25.732 58.4353 26.206 58.5977 26.6435C58.7601 27.081 59.0103 27.4339 59.3484 27.7024C59.6864 27.9709 60.1173 28.1051 60.641 28.1051ZM69.9888 29V18.8182H71.1621V22.5767H71.2615C71.3477 22.4441 71.467 22.2751 71.6195 22.0696C71.7753 21.8608 71.9973 21.6752 72.2857 21.5128C72.5774 21.3471 72.9718 21.2642 73.4689 21.2642C74.1119 21.2642 74.6787 21.425 75.1692 21.7464C75.6597 22.0679 76.0426 22.5237 76.3176 23.1136C76.5927 23.7036 76.7303 24.3996 76.7303 25.2017C76.7303 26.0104 76.5927 26.7114 76.3176 27.3047C76.0426 27.8946 75.6614 28.352 75.1742 28.6768C74.687 28.9983 74.1252 29.1591 73.4888 29.1591C72.9983 29.1591 72.6055 29.0779 72.3105 28.9155C72.0156 28.7498 71.7885 28.5625 71.6294 28.3537C71.4703 28.1416 71.3477 27.9659 71.2615 27.8267H71.1223V29H69.9888ZM71.1422 25.1818C71.1422 25.7585 71.2267 26.2673 71.3958 26.7081C71.5648 27.1456 71.8117 27.4886 72.1365 27.7372C72.4614 27.9825 72.8591 28.1051 73.3297 28.1051C73.8203 28.1051 74.2296 27.9759 74.5577 27.7173C74.8891 27.4555 75.1377 27.1042 75.3034 26.6634C75.4725 26.2192 75.557 25.7254 75.557 25.1818C75.557 24.6449 75.4741 24.161 75.3084 23.7301C75.146 23.2959 74.8991 22.9529 74.5676 22.701C74.2395 22.4458 73.8269 22.3182 73.3297 22.3182C72.8525 22.3182 72.4514 22.4392 72.1266 22.6811C71.8018 22.9197 71.5565 23.2545 71.3908 23.6854C71.2251 24.1129 71.1422 24.6117 71.1422 25.1818ZM78.525 29V21.3636H79.6983V29L78.525 29ZM79.1216 20.0909C78.8929 20.0909 78.6957 20.013 78.53 19.8572C78.3676 19.7015 78.2864 19.5142 78.2864 19.2955C78.2864 19.0767 78.3676 18.8894 78.53 18.7337C78.6957 18.5779 78.8929 18.5 79.1216 18.5C79.3503 18.5 79.5459 18.5779 79.7083 18.7337C79.874 18.8894 79.9569 19.0767 79.9569 19.2955C79.9569 19.5142 79.874 19.7015 79.7083 19.8572C79.5459 20.013 79.3503 20.0909 79.1216 20.0909ZM81.8473 29V21.3636L82.9808 21.3636V22.517H83.0604C83.1996 22.1392 83.4515 21.8326 83.8161 21.5973C84.1806 21.362 84.5916 21.2443 85.049 21.2443C85.1352 21.2443 85.2429 21.246 85.3722 21.2493C85.5014 21.2526 85.5992 21.2576 85.6655 21.2642V22.4574C85.6257 22.4474 85.5346 22.4325 85.392 22.4126C85.2528 22.3894 85.1054 22.3778 84.9496 22.3778C84.5784 22.3778 84.2469 22.4557 83.9553 22.6115C83.6669 22.764 83.4382 22.9761 83.2692 23.2479C83.1035 23.5163 83.0206 23.8229 83.0206 24.1676V29H81.8473ZM89.7074 29.1591C89.071 29.1591 88.5092 28.9983 88.022 28.6768C87.5348 28.352 87.1536 27.8946 86.8786 27.3047C86.6035 26.7114 86.4659 26.0104 86.4659 25.2017C86.4659 24.3996 86.6035 23.7036 86.8786 23.1136C87.1536 22.5237 87.5365 22.0679 88.027 21.7464C88.5175 21.425 89.0843 21.2642 89.7273 21.2642C90.2244 21.2642 90.6172 21.3471 90.9055 21.5128C91.1972 21.6752 91.4193 21.8608 91.5717 22.0696C91.7275 22.2751 91.8485 22.4441 91.9347 22.5767H92.0341V18.8182H93.2074V29H92.0739V27.8267H91.9347C91.8485 27.9659 91.7259 28.1416 91.5668 28.3537C91.4077 28.5625 91.1806 28.7498 90.8857 28.9155C90.5907 29.0779 90.1979 29.1591 89.7074 29.1591ZM89.8665 28.1051C90.3371 28.1051 90.7348 27.9825 91.0597 27.7372C91.3845 27.4886 91.6314 27.1456 91.8004 26.7081C91.9695 26.2673 92.054 25.7585 92.054 25.1818C92.054 24.6117 91.9711 24.1129 91.8054 23.6854C91.6397 23.2545 91.3944 22.9197 91.0696 22.6811C90.7448 22.4392 90.3438 22.3182 89.8665 22.3182C89.3693 22.3182 88.955 22.4458 88.6236 22.701C88.2955 22.9529 88.0485 23.2959 87.8828 23.7301C87.7204 24.161 87.6392 24.6449 87.6392 25.1818C87.6392 25.7254 87.7221 26.2192 87.8878 26.6634C88.0568 27.1042 88.3054 27.4555 88.6335 27.7173C88.965 27.9759 89.3759 28.1051 89.8665 28.1051ZM100.928 23.0739L99.8743 23.3722C99.808 23.1965 99.7102 23.0258 99.581 22.8601C99.455 22.6911 99.2827 22.5518 99.0639 22.4425C98.8452 22.3331 98.5651 22.2784 98.2237 22.2784C97.7564 22.2784 97.367 22.3861 97.0554 22.6016C96.7472 22.8137 96.593 23.0838 96.593 23.4119C96.593 23.7036 96.6991 23.9339 96.9112 24.103C97.1233 24.272 97.4548 24.4129 97.9055 24.5256L99.0391 24.804C99.7218 24.9697 100.231 25.2232 100.565 25.5646C100.9 25.9027 101.067 26.3385 101.067 26.8722C101.067 27.3097 100.942 27.7008 100.69 28.0455C100.441 28.3902 100.093 28.6619 99.6456 28.8608C99.1982 29.0597 98.6778 29.1591 98.0845 29.1591C97.3056 29.1591 96.661 28.9901 96.1506 28.652C95.6402 28.3139 95.317 27.8201 95.1811 27.1705L96.2947 26.892C96.4008 27.303 96.6013 27.6113 96.8963 27.8168C97.1946 28.0223 97.584 28.125 98.0646 28.125C98.6115 28.125 99.0457 28.009 99.3672 27.777C99.692 27.5417 99.8544 27.2599 99.8544 26.9318C99.8544 26.6667 99.7616 26.4446 99.576 26.2656C99.3904 26.0833 99.1054 25.9474 98.7209 25.858L97.4482 25.5597C96.7488 25.3939 96.2351 25.1371 95.907 24.7891C95.5821 24.4377 95.4197 23.9986 95.4197 23.4716C95.4197 23.0407 95.5407 22.6596 95.7827 22.3281C96.0279 21.9967 96.361 21.7365 96.782 21.5476C97.2062 21.3587 97.6868 21.2642 98.2237 21.2642C98.9794 21.2642 99.5727 21.4299 100.004 21.7614C100.438 22.0928 100.746 22.5303 100.928 23.0739ZM107.944 24.4063V29H106.771V21.3636H107.905V22.5568H108.004C108.183 22.169 108.455 21.8575 108.819 21.6222C109.184 21.3835 109.655 21.2642 110.231 21.2642C110.748 21.2642 111.201 21.3703 111.589 21.5824C111.976 21.7912 112.278 22.1094 112.493 22.5369C112.709 22.9612 112.817 23.4981 112.817 24.1477V29H111.643V24.2273C111.643 23.6274 111.488 23.16 111.176 22.8253C110.864 22.4872 110.437 22.3182 109.893 22.3182C109.519 22.3182 109.184 22.3994 108.889 22.5618C108.597 22.7242 108.367 22.9612 108.198 23.2727C108.029 23.5843 107.944 23.9621 107.944 24.4063ZM117.208 29.179C116.724 29.179 116.285 29.0878 115.89 28.9055C115.496 28.7199 115.183 28.4531 114.951 28.1051C114.719 27.7538 114.603 27.3295 114.603 26.8324C114.603 26.3949 114.689 26.0402 114.861 25.7685C115.033 25.4934 115.264 25.2779 115.552 25.1222C115.841 24.9664 116.159 24.8504 116.507 24.7741C116.858 24.6946 117.211 24.6316 117.566 24.5852C118.03 24.5256 118.406 24.4808 118.694 24.451C118.986 24.4179 119.198 24.3632 119.331 24.2869C119.467 24.2107 119.534 24.0781 119.534 23.8892V23.8494C119.534 23.3589 119.4 22.9777 119.132 22.706C118.867 22.4342 118.464 22.2983 117.924 22.2983C117.364 22.2983 116.924 22.4209 116.606 22.6662C116.288 22.9115 116.064 23.1733 115.935 23.4517L114.821 23.054C115.02 22.59 115.285 22.2287 115.617 21.9702C115.952 21.7083 116.316 21.526 116.711 21.4233C117.108 21.3172 117.499 21.2642 117.884 21.2642C118.129 21.2642 118.411 21.294 118.729 21.3537C119.051 21.41 119.36 21.5277 119.659 21.7067C119.96 21.8857 120.211 22.1558 120.409 22.517C120.608 22.8783 120.708 23.3622 120.708 23.9688V29H119.534V27.9659H119.475C119.395 28.1316 119.263 28.3089 119.077 28.4979C118.891 28.6868 118.645 28.8475 118.336 28.9801C118.028 29.1127 117.652 29.179 117.208 29.179ZM117.387 28.125C117.851 28.125 118.242 28.0339 118.56 27.8516C118.882 27.6693 119.123 27.4339 119.286 27.1456C119.452 26.8572 119.534 26.554 119.534 26.2358V25.1619C119.485 25.2216 119.375 25.2763 119.206 25.326C119.041 25.3724 118.848 25.4138 118.63 25.4503C118.414 25.4834 118.204 25.5133 117.998 25.5398C117.796 25.563 117.632 25.5829 117.506 25.5994C117.201 25.6392 116.916 25.7038 116.651 25.7933C116.389 25.8795 116.177 26.0104 116.015 26.1861C115.855 26.3584 115.776 26.5937 115.776 26.892C115.776 27.2997 115.927 27.608 116.228 27.8168C116.533 28.0223 116.919 28.125 117.387 28.125ZM128.82 21.3636L125.996 29H124.803L121.979 21.3636H123.252L125.36 27.4489H125.439L127.547 21.3636H128.82ZM130.369 29V21.3636H131.542V29H130.369ZM130.965 20.0909C130.737 20.0909 130.539 20.013 130.374 19.8572C130.211 19.7015 130.13 19.5142 130.13 19.2955C130.13 19.0767 130.211 18.8894 130.374 18.7337C130.539 18.5779 130.737 18.5 130.965 18.5C131.194 18.5 131.39 18.5779 131.552 18.7337C131.718 18.8894 131.801 19.0767 131.801 19.2955C131.801 19.5142 131.718 19.7015 131.552 19.8572C131.39 20.013 131.194 20.0909 130.965 20.0909ZM136.773 32.0227C136.207 32.0227 135.719 31.9498 135.312 31.804C134.904 31.6615 134.564 31.4725 134.293 31.2372C134.024 31.0052 133.81 30.7566 133.651 30.4915L134.586 29.8352C134.692 29.9744 134.826 30.1335 134.989 30.3125C135.151 30.4948 135.373 30.6522 135.655 30.7848C135.94 30.9207 136.313 30.9886 136.773 30.9886C137.39 30.9886 137.899 30.8395 138.3 30.5412C138.701 30.2429 138.901 29.7756 138.901 29.1392V27.5881H138.802C138.716 27.7273 138.593 27.8996 138.434 28.1051C138.278 28.3073 138.053 28.4879 137.758 28.647C137.466 28.8028 137.072 28.8807 136.575 28.8807C135.958 28.8807 135.405 28.7348 134.914 28.4432C134.427 28.1515 134.041 27.7273 133.756 27.1705C133.474 26.6136 133.333 25.9375 133.333 25.142C133.333 24.3598 133.471 23.6787 133.746 23.0987C134.021 22.5154 134.404 22.0646 134.894 21.7464C135.385 21.425 135.951 21.2642 136.594 21.2642C137.092 21.2642 137.486 21.3471 137.778 21.5128C138.073 21.6752 138.298 21.8608 138.454 22.0696C138.613 22.2751 138.736 22.4441 138.822 22.5767H138.941V21.3636H140.075V29.2188C140.075 29.875 139.925 30.4086 139.627 30.8196C139.332 31.2339 138.934 31.5372 138.434 31.7294C137.937 31.925 137.383 32.0227 136.773 32.0227ZM136.734 27.8267C137.204 27.8267 137.602 27.719 137.927 27.5036C138.252 27.2881 138.499 26.9782 138.668 26.5739C138.837 26.1695 138.921 25.6856 138.921 25.1222C138.921 24.572 138.838 24.0864 138.673 23.6655C138.507 23.2446 138.262 22.9148 137.937 22.6761C137.612 22.4375 137.211 22.3182 136.734 22.3182C136.237 22.3182 135.822 22.4441 135.491 22.696C135.163 22.9479 134.916 23.286 134.75 23.7102C134.588 24.1345 134.506 24.6051 134.506 25.1222C134.506 25.6525 134.589 26.1214 134.755 26.5291C134.924 26.9335 135.173 27.2517 135.501 27.4837C135.832 27.7124 136.243 27.8267 136.734 27.8267ZM144.469 29.179C143.986 29.179 143.546 29.0878 143.152 28.9055C142.758 28.7199 142.444 28.4531 142.212 28.1051C141.98 27.7538 141.864 27.3295 141.864 26.8324C141.864 26.3949 141.951 26.0402 142.123 25.7685C142.295 25.4934 142.526 25.2779 142.814 25.1222C143.102 24.9664 143.42 24.8504 143.768 24.7741C144.12 24.6946 144.473 24.6316 144.827 24.5852C145.291 24.5256 145.668 24.4808 145.956 24.451C146.248 24.4179 146.46 24.3632 146.592 24.2869C146.728 24.2107 146.796 24.0781 146.796 23.8892V23.8494C146.796 23.3589 146.662 22.9777 146.393 22.706C146.128 22.4342 145.726 22.2983 145.185 22.2983C144.625 22.2983 144.186 22.4209 143.868 22.6662C143.55 22.9115 143.326 23.1733 143.197 23.4517L142.083 23.054C142.282 22.59 142.547 22.2287 142.879 21.9702C143.213 21.7083 143.578 21.526 143.972 21.4233C144.37 21.3172 144.761 21.2642 145.146 21.2642C145.391 21.2642 145.673 21.294 145.991 21.3537C146.312 21.41 146.622 21.5277 146.92 21.7067C147.222 21.8857 147.472 22.1558 147.671 22.517C147.87 22.8783 147.969 23.3622 147.969 23.9688V29H146.796V27.9659H146.737C146.657 28.1316 146.524 28.3089 146.339 28.4979C146.153 28.6868 145.906 28.8475 145.598 28.9801C145.29 29.1127 144.914 29.179 144.469 29.179ZM144.648 28.125C145.112 28.125 145.504 28.0339 145.822 27.8516C146.143 27.6693 146.385 27.4339 146.548 27.1456C146.713 26.8572 146.796 26.554 146.796 26.2358V25.1619C146.746 25.2216 146.637 25.2763 146.468 25.326C146.302 25.3724 146.11 25.4138 145.891 25.4503C145.676 25.4834 145.465 25.5133 145.26 25.5398C145.058 25.563 144.894 25.5829 144.768 25.5994C144.463 25.6392 144.178 25.7038 143.913 25.7933C143.651 25.8795 143.439 26.0104 143.276 26.1861C143.117 26.3584 143.038 26.5937 143.038 26.892C143.038 27.2997 143.188 27.608 143.49 27.8168C143.795 28.0223 144.181 28.125 144.648 28.125ZM153.432 21.3636V22.358H149.475V21.3636H153.432ZM150.628 19.5341H151.801V26.8125C151.801 27.1439 151.849 27.3925 151.945 27.5582C152.045 27.7206 152.171 27.83 152.323 27.8864C152.479 27.9394 152.643 27.9659 152.816 27.9659C152.945 27.9659 153.051 27.9593 153.134 27.946C153.217 27.9295 153.283 27.9162 153.333 27.9063L153.571 28.9602C153.492 28.9901 153.381 29.0199 153.238 29.0497C153.096 29.0829 152.915 29.0994 152.696 29.0994C152.365 29.0994 152.04 29.0282 151.722 28.8857C151.407 28.7431 151.145 28.526 150.936 28.2344C150.731 27.9427 150.628 27.5748 150.628 27.1307V19.5341ZM158.317 29.1591C157.581 29.1591 156.946 28.9967 156.412 28.6719C155.882 28.3438 155.473 27.8864 155.184 27.2997C154.899 26.7098 154.757 26.0237 154.757 25.2415C154.757 24.4593 154.899 23.7699 155.184 23.1733C155.473 22.5734 155.874 22.1061 156.388 21.7713C156.905 21.4332 157.508 21.2642 158.197 21.2642C158.595 21.2642 158.988 21.3305 159.376 21.4631C159.763 21.5956 160.116 21.8111 160.434 22.1094C160.753 22.4044 161.006 22.7955 161.195 23.2827C161.384 23.7699 161.479 24.3698 161.479 25.0824V25.5795H155.592V24.5653H160.285C160.285 24.1345 160.199 23.75 160.027 23.4119C159.858 23.0739 159.616 22.8071 159.301 22.6115C158.989 22.416 158.622 22.3182 158.197 22.3182C157.73 22.3182 157.326 22.4342 156.984 22.6662C156.646 22.8949 156.386 23.1932 156.204 23.5611C156.021 23.929 155.93 24.3234 155.93 24.7443V25.4205C155.93 25.9972 156.03 26.486 156.229 26.8871C156.431 27.2848 156.711 27.5881 157.069 27.7969C157.427 28.0024 157.843 28.1051 158.317 28.1051C158.625 28.1051 158.903 28.062 159.152 27.9759C159.404 27.8864 159.621 27.7538 159.803 27.5781C159.985 27.3991 160.126 27.1771 160.226 26.9119L161.359 27.2301C161.24 27.6146 161.039 27.9527 160.758 28.2443C160.476 28.5327 160.128 28.758 159.714 28.9205C159.299 29.0795 158.834 29.1591 158.317 29.1591ZM170.084 29.1591C169.448 29.1591 168.886 28.9983 168.399 28.6768C167.912 28.352 167.531 27.8946 167.256 27.3047C166.98 26.7114 166.843 26.0104 166.843 25.2017C166.843 24.3996 166.98 23.7036 167.256 23.1136C167.531 22.5237 167.913 22.0679 168.404 21.7464C168.894 21.425 169.461 21.2642 170.104 21.2642C170.601 21.2642 170.994 21.3471 171.282 21.5128C171.574 21.6752 171.796 21.8608 171.949 22.0696C172.104 22.2751 172.225 22.4441 172.312 22.5767H172.411V18.8182H173.584V29H172.451V27.8267H172.312C172.225 27.9659 172.103 28.1416 171.944 28.3537C171.785 28.5625 171.558 28.7498 171.263 28.9155C170.968 29.0779 170.575 29.1591 170.084 29.1591ZM170.243 28.1051C170.714 28.1051 171.112 27.9825 171.437 27.7372C171.761 27.4886 172.008 27.1456 172.177 26.7081C172.346 26.2673 172.431 25.7585 172.431 25.1818C172.431 24.6117 172.348 24.1129 172.182 23.6854C172.017 23.2545 171.771 22.9197 171.447 22.6811C171.122 22.4392 170.721 22.3182 170.243 22.3182C169.746 22.3182 169.332 22.4458 169.001 22.701C168.672 22.9529 168.425 23.2959 168.26 23.7301C168.097 24.161 168.016 24.6449 168.016 25.1818C168.016 25.7254 168.099 26.2192 168.265 26.6634C168.434 27.1042 168.682 27.4555 169.01 27.7173C169.342 27.9759 169.753 28.1051 170.243 28.1051ZM180.709 25.8778V21.3636H181.882V29L180.709 29V27.7074H180.629C180.45 28.0952 180.172 28.425 179.794 28.6967C179.416 28.9652 178.939 29.0994 178.362 29.0994C177.885 29.0994 177.461 28.995 177.089 28.7862C176.718 28.5741 176.426 28.2559 176.214 27.8317C176.002 27.4041 175.896 26.8655 175.896 26.2159V21.3636H177.069V26.1364C177.069 26.6932 177.225 27.1373 177.537 27.4688C177.852 27.8002 178.253 27.9659 178.74 27.9659C179.032 27.9659 179.328 27.8913 179.63 27.7422C179.935 27.593 180.19 27.3643 180.395 27.0561C180.604 26.7479 180.709 26.3551 180.709 25.8778ZM184.031 29V21.3636H185.164V22.517H185.244C185.383 22.1392 185.635 21.8326 186 21.5973C186.364 21.362 186.775 21.2443 187.233 21.2443C187.319 21.2443 187.426 21.246 187.556 21.2493C187.685 21.2526 187.783 21.2576 187.849 21.2642V22.4574C187.809 22.4474 187.718 22.4325 187.576 22.4126C187.436 22.3894 187.289 22.3778 187.133 22.3778C186.762 22.3778 186.431 22.4557 186.139 22.6115C185.85 22.764 185.622 22.9761 185.453 23.2479C185.287 23.5163 185.204 23.8229 185.204 24.1676V29H184.031ZM189.24 29V21.3636H190.413V29H189.24ZM189.836 20.0909C189.608 20.0909 189.411 20.013 189.245 19.8572C189.082 19.7015 189.001 19.5142 189.001 19.2955C189.001 19.0767 189.082 18.8894 189.245 18.7337C189.411 18.5779 189.608 18.5 189.836 18.5C190.065 18.5 190.261 18.5779 190.423 18.7337C190.589 18.8894 190.672 19.0767 190.672 19.2955C190.672 19.5142 190.589 19.7015 190.423 19.8572C190.261 20.013 190.065 20.0909 189.836 20.0909ZM193.735 24.4063V29H192.562V21.3636H193.696V22.5568H193.795C193.974 22.169 194.246 21.8575 194.61 21.6222C194.975 21.3835 195.446 21.2642 196.022 21.2642C196.539 21.2642 196.992 21.3703 197.38 21.5824C197.767 21.7912 198.069 22.1094 198.284 22.5369C198.5 22.9612 198.608 23.4981 198.608 24.1477V29H197.434V24.2273C197.434 23.6274 197.279 23.16 196.967 22.8253C196.655 22.4872 196.228 22.3182 195.684 22.3182C195.31 22.3182 194.975 22.3994 194.68 22.5618C194.388 22.7242 194.158 22.9612 193.989 23.2727C193.82 23.5843 193.735 23.9621 193.735 24.4063ZM203.834 32.0227C203.267 32.0227 202.78 31.9498 202.372 31.804C201.965 31.6615 201.625 31.4725 201.353 31.2372C201.085 31.0052 200.871 30.7566 200.712 30.4915L201.646 29.8352C201.753 29.9744 201.887 30.1335 202.049 30.3125C202.212 30.4948 202.434 30.6522 202.715 30.7848C203 30.9207 203.373 30.9886 203.834 30.9886C204.45 30.9886 204.959 30.8395 205.36 30.5412C205.761 30.2429 205.962 29.7756 205.962 29.1392V27.5881H205.862C205.776 27.7273 205.654 27.8996 205.494 28.1051C205.339 28.3073 205.113 28.4879 204.818 28.647C204.527 28.8028 204.132 28.8807 203.635 28.8807C203.019 28.8807 202.465 28.7348 201.975 28.4432C201.487 28.1515 201.101 27.7273 200.816 27.1705C200.535 26.6136 200.394 25.9375 200.394 25.142C200.394 24.3598 200.531 23.6787 200.806 23.0987C201.081 22.5154 201.464 22.0646 201.955 21.7464C202.445 21.425 203.012 21.2642 203.655 21.2642C204.152 21.2642 204.547 21.3471 204.838 21.5128C205.133 21.6752 205.359 21.8608 205.514 22.0696C205.673 22.2751 205.796 22.4441 205.882 22.5767H206.002V21.3636L207.135 21.3636V29.2188C207.135 29.875 206.986 30.4086 206.688 30.8196C206.393 31.2339 205.995 31.5372 205.494 31.7294C204.997 31.925 204.444 32.0227 203.834 32.0227ZM203.794 27.8267C204.265 27.8267 204.663 27.719 204.987 27.5036C205.312 27.2881 205.559 26.9782 205.728 26.5739C205.897 26.1695 205.982 25.6856 205.982 25.1222C205.982 24.572 205.899 24.0864 205.733 23.6655C205.567 23.2446 205.322 22.9148 204.997 22.6761C204.673 22.4375 204.271 22.3182 203.794 22.3182C203.297 22.3182 202.883 22.4441 202.551 22.696C202.223 22.9479 201.976 23.286 201.811 23.7102C201.648 24.1345 201.567 24.6051 201.567 25.1222C201.567 25.6525 201.65 26.1214 201.816 26.5291C201.985 26.9335 202.233 27.2517 202.561 27.4837C202.893 27.7124 203.304 27.8267 203.794 27.8267ZM213.22 29V21.3636H214.354V22.5568H214.453C214.612 22.1491 214.869 21.8326 215.224 21.6072C215.579 21.3786 216.004 21.2642 216.502 21.2642C217.005 21.2642 217.425 21.3786 217.759 21.6072C218.097 21.8326 218.361 22.1491 218.55 22.5568H218.629C218.825 22.1624 219.118 21.8492 219.509 21.6172C219.901 21.3819 220.369 21.2642 220.916 21.2642C221.599 21.2642 222.158 21.478 222.592 21.9055C223.026 22.3298 223.243 22.991 223.243 23.8892V29H222.07V23.8892C222.07 23.3258 221.916 22.9231 221.607 22.6811C221.299 22.4392 220.936 22.3182 220.519 22.3182C219.982 22.3182 219.566 22.4806 219.271 22.8054C218.976 23.1269 218.828 23.5346 218.828 24.0284V29H217.635V23.7699C217.635 23.3357 217.494 22.986 217.213 22.7209C216.931 22.4524 216.568 22.3182 216.124 22.3182C215.819 22.3182 215.534 22.3994 215.269 22.5618C215.007 22.7242 214.795 22.9496 214.632 23.2379C214.473 23.523 214.394 23.8527 214.394 24.2273V29H213.22ZM225.388 29V21.3636H226.562V29H225.388ZM225.985 20.0909C225.756 20.0909 225.559 20.013 225.393 19.8572C225.231 19.7015 225.15 19.5142 225.15 19.2955C225.15 19.0767 225.231 18.8894 225.393 18.7337C225.559 18.5779 225.756 18.5 225.985 18.5C226.214 18.5 226.409 18.5779 226.572 18.7337C226.737 18.8894 226.82 19.0767 226.82 19.2955C226.82 19.5142 226.737 19.7015 226.572 19.8572C226.409 20.013 226.214 20.0909 225.985 20.0909ZM231.793 32.0227C231.226 32.0227 230.739 31.9498 230.331 31.804C229.924 31.6615 229.584 31.4725 229.312 31.2372C229.044 31.0052 228.83 30.7566 228.671 30.4915L229.605 29.8352C229.712 29.9744 229.846 30.1335 230.008 30.3125C230.171 30.4948 230.393 30.6522 230.674 30.7848C230.959 30.9207 231.332 30.9886 231.793 30.9886C232.409 30.9886 232.918 30.8395 233.319 30.5412C233.72 30.2429 233.921 29.7756 233.921 29.1392V27.5881H233.821C233.735 27.7273 233.613 27.8996 233.453 28.1051C233.298 28.3073 233.072 28.4879 232.777 28.647C232.486 28.8028 232.091 28.8807 231.594 28.8807C230.978 28.8807 230.424 28.7348 229.934 28.4432C229.446 28.1515 229.06 27.7273 228.775 27.1705C228.493 26.6136 228.353 25.9375 228.353 25.142C228.353 24.3598 228.49 23.6787 228.765 23.0987C229.04 22.5154 229.423 22.0646 229.914 21.7464C230.404 21.425 230.971 21.2642 231.614 21.2642C232.111 21.2642 232.506 21.3471 232.797 21.5128C233.092 21.6752 233.318 21.8608 233.473 22.0696C233.632 22.2751 233.755 22.4441 233.841 22.5767H233.961V21.3636H235.094V29.2188C235.094 29.875 234.945 30.4086 234.647 30.8196C234.352 31.2339 233.954 31.5372 233.453 31.7294C232.956 31.925 232.403 32.0227 231.793 32.0227ZM231.753 27.8267C232.224 27.8267 232.622 27.719 232.946 27.5036C233.271 27.2881 233.518 26.9782 233.687 26.5739C233.856 26.1695 233.941 25.6856 233.941 25.1222C233.941 24.572 233.858 24.0864 233.692 23.6655C233.526 23.2446 233.281 22.9148 232.956 22.6761C232.632 22.4375 232.23 22.3182 231.753 22.3182C231.256 22.3182 230.842 22.4441 230.51 22.696C230.182 22.9479 229.935 23.286 229.77 23.7102C229.607 24.1345 229.526 24.6051 229.526 25.1222C229.526 25.6525 229.609 26.1214 229.775 26.5291C229.944 26.9335 230.192 27.2517 230.52 27.4837C230.852 27.7124 231.263 27.8267 231.753 27.8267ZM237.242 29V21.3636H238.375V22.517H238.455C238.594 22.1392 238.846 21.8326 239.211 21.5973C239.575 21.362 239.986 21.2443 240.444 21.2443C240.53 21.2443 240.637 21.246 240.767 21.2493C240.896 21.2526 240.994 21.2576 241.06 21.2642V22.4574C241.02 22.4474 240.929 22.4325 240.787 22.4126C240.647 22.3894 240.5 22.3778 240.344 22.3778C239.973 22.3778 239.641 22.4557 239.35 22.6115C239.061 22.764 238.833 22.9761 238.664 23.2479C238.498 23.5163 238.415 23.8229 238.415 24.1676V29H237.242ZM244.698 29.179C244.214 29.179 243.775 29.0878 243.381 28.9055C242.986 28.7199 242.673 28.4531 242.441 28.1051C242.209 27.7538 242.093 27.3295 242.093 26.8324C242.093 26.3949 242.179 26.0402 242.351 25.7685C242.524 25.4934 242.754 25.2779 243.042 25.1222C243.331 24.9664 243.649 24.8504 243.997 24.7741C244.348 24.6946 244.701 24.6316 245.056 24.5852C245.52 24.5256 245.896 24.4808 246.184 24.451C246.476 24.4179 246.688 24.3632 246.821 24.2869C246.957 24.2107 247.025 24.0781 247.025 23.8892V23.8494C247.025 23.3589 246.89 22.9777 246.622 22.706C246.357 22.4342 245.954 22.2983 245.414 22.2983C244.854 22.2983 244.415 22.4209 244.096 22.6662C243.778 22.9115 243.555 23.1733 243.425 23.4517L242.312 23.054C242.51 22.59 242.776 22.2287 243.107 21.9702C243.442 21.7083 243.806 21.526 244.201 21.4233C244.599 21.3172 244.99 21.2642 245.374 21.2642C245.619 21.2642 245.901 21.294 246.219 21.3537C246.541 21.41 246.851 21.5277 247.149 21.7067C247.451 21.8857 247.701 22.1558 247.9 22.517C248.099 22.8783 248.198 23.3622 248.198 23.9688V29H247.025V27.9659H246.965C246.885 28.1316 246.753 28.3089 246.567 28.4979C246.382 28.6868 246.135 28.8475 245.827 28.9801C245.518 29.1127 245.142 29.179 244.698 29.179ZM244.877 28.125C245.341 28.125 245.732 28.0339 246.05 27.8516C246.372 27.6693 246.614 27.4339 246.776 27.1456C246.942 26.8572 247.025 26.554 247.025 26.2358V25.1619C246.975 25.2216 246.866 25.2763 246.697 25.326C246.531 25.3724 246.339 25.4138 246.12 25.4503C245.904 25.4834 245.694 25.5133 245.488 25.5398C245.286 25.563 245.122 25.5829 244.996 25.5994C244.691 25.6392 244.406 25.7038 244.141 25.7933C243.879 25.8795 243.667 26.0104 243.505 26.1861C243.346 26.3584 243.266 26.5937 243.266 26.892C243.266 27.2997 243.417 27.608 243.719 27.8168C244.023 28.0223 244.41 28.125 244.877 28.125ZM253.661 21.3636V22.358H249.703V21.3636H253.661ZM250.857 19.5341H252.03V26.8125C252.03 27.1439 252.078 27.3925 252.174 27.5582C252.273 27.7206 252.399 27.83 252.552 27.8864C252.708 27.9394 252.872 27.9659 253.044 27.9659C253.173 27.9659 253.279 27.9593 253.362 27.946C253.445 27.9295 253.511 27.9162 253.561 27.9063L253.8 28.9602C253.72 28.9901 253.609 29.0199 253.467 29.0497C253.324 29.0829 253.143 29.0994 252.925 29.0994C252.593 29.0994 252.268 29.0282 251.95 28.8857C251.635 28.7431 251.374 28.526 251.165 28.2344C250.959 27.9427 250.857 27.5748 250.857 27.1307V19.5341ZM255.425 29V21.3636H256.599V29H255.425ZM256.022 20.0909C255.793 20.0909 255.596 20.013 255.43 19.8572C255.268 19.7015 255.187 19.5142 255.187 19.2955C255.187 19.0767 255.268 18.8894 255.43 18.7337C255.596 18.5779 255.793 18.5 256.022 18.5C256.251 18.5 256.446 18.5779 256.609 18.7337C256.774 18.8894 256.857 19.0767 256.857 19.2955C256.857 19.5142 256.774 19.7015 256.609 19.8572C256.446 20.013 256.251 20.0909 256.022 20.0909ZM261.85 29.1591C261.161 29.1591 260.556 28.995 260.035 28.6669C259.518 28.3388 259.114 27.8797 258.822 27.2898C258.534 26.6998 258.39 26.0104 258.39 25.2216C258.39 24.4261 258.534 23.7318 258.822 23.1385C259.114 22.5452 259.518 22.0845 260.035 21.7564C260.556 21.4283 261.161 21.2642 261.85 21.2642C262.539 21.2642 263.143 21.4283 263.66 21.7564C264.18 22.0845 264.584 22.5452 264.873 23.1385C265.164 23.7318 265.31 24.4261 265.31 25.2216C265.31 26.0104 265.164 26.6998 264.873 27.2898C264.584 27.8797 264.18 28.3388 263.66 28.6669C263.143 28.995 262.539 29.1591 261.85 29.1591ZM261.85 28.1051C262.374 28.1051 262.805 27.9709 263.143 27.7024C263.481 27.4339 263.731 27.081 263.893 26.6435C264.056 26.206 264.137 25.732 264.137 25.2216C264.137 24.7112 264.056 24.2356 263.893 23.7947C263.731 23.3539 263.481 22.9976 263.143 22.7259C262.805 22.4541 262.374 22.3182 261.85 22.3182C261.326 22.3182 260.895 22.4541 260.557 22.7259C260.219 22.9976 259.969 23.3539 259.807 23.7947C259.644 24.2356 259.563 24.7112 259.563 25.2216C259.563 25.732 259.644 26.206 259.807 26.6435C259.969 27.081 260.219 27.4339 260.557 27.7024C260.895 27.9709 261.326 28.1051 261.85 28.1051ZM268.275 24.4063V29L267.101 29V21.3636H268.235V22.5568H268.334C268.513 22.169 268.785 21.8575 269.15 21.6222C269.514 21.3835 269.985 21.2642 270.561 21.2642C271.078 21.2642 271.531 21.3703 271.919 21.5824C272.306 21.7912 272.608 22.1094 272.824 22.5369C273.039 22.9612 273.147 23.4981 273.147 24.1477V29H271.973V24.2273C271.973 23.6274 271.818 23.16 271.506 22.8253C271.194 22.4872 270.767 22.3182 270.223 22.3182C269.849 22.3182 269.514 22.3994 269.219 22.5618C268.927 22.7242 268.697 22.9612 268.528 23.2727C268.359 23.5843 268.275 23.9621 268.275 24.4063ZM276.822 26.1364V26.0767C276.829 25.4437 276.895 24.9399 277.021 24.5653C277.147 24.1908 277.326 23.8875 277.558 23.6555C277.79 23.4235 278.068 23.2098 278.393 23.0142C278.588 22.8949 278.764 22.754 278.92 22.5916C279.076 22.4259 279.198 22.2353 279.288 22.0199C279.381 21.8045 279.427 21.5658 279.427 21.304C279.427 20.9792 279.351 20.6974 279.198 20.4588C279.046 20.2202 278.842 20.0362 278.587 19.907C278.332 19.7777 278.048 19.7131 277.737 19.7131C277.465 19.7131 277.203 19.7694 276.951 19.8821C276.699 19.9948 276.489 20.1721 276.32 20.4141C276.151 20.656 276.053 20.9725 276.026 21.3636H274.774C274.8 20.8002 274.946 20.3179 275.211 19.9169C275.48 19.5159 275.833 19.2093 276.27 18.9972C276.711 18.785 277.2 18.679 277.737 18.679C278.32 18.679 278.827 18.795 279.258 19.027C279.692 19.259 280.027 19.5772 280.262 19.9815C280.501 20.3859 280.62 20.8466 280.62 21.3636C280.62 21.7282 280.564 22.058 280.451 22.353C280.342 22.648 280.183 22.9115 279.974 23.1435C279.768 23.3755 279.52 23.581 279.228 23.7599C278.936 23.9422 278.703 24.1345 278.527 24.3366C278.352 24.5355 278.224 24.7725 278.144 25.0476C278.065 25.3227 278.022 25.6657 278.015 26.0767V26.1364H276.822ZM277.458 29.0795C277.213 29.0795 277.003 28.9917 276.827 28.8161C276.651 28.6404 276.563 28.4299 276.563 28.1847C276.563 27.9394 276.651 27.7289 276.827 27.5533C277.003 27.3776 277.213 27.2898 277.458 27.2898C277.704 27.2898 277.914 27.3776 278.09 27.5533C278.265 27.7289 278.353 27.9394 278.353 28.1847C278.353 28.3471 278.312 28.4962 278.229 28.6321C278.149 28.768 278.042 28.8774 277.906 28.9602C277.773 29.0398 277.624 29.0795 277.458 29.0795Z" fill="#161A1E"/>
</g>
<defs>
<filter id="filter0_dd_17_135" x="0" y="0" width="299" height="48" filterUnits="userSpaceOnUse" color-interpolation-filters="sRGB">
<feFlood flood-opacity="0" result="BackgroundImageFix"/>
<feColorMatrix in="SourceAlpha" type="matrix" values="0 0 0 0 0 0 0 0 0 0 0 0 0 0 0 0 0 0 127 0" result="hardAlpha"/>
<feOffset/>
<feGaussianBlur stdDeviation="0.5"/>
<feColorMatrix type="matrix" values="0 0 0 0 0.0901961 0 0 0 0 0.101961 0 0 0 0 0.121569 0 0 0 0.07 0"/>
<feBlend mode="normal" in2="BackgroundImageFix" result="effect1_dropShadow_17_135"/>
<feColorMatrix in="SourceAlpha" type="matrix" values="0 0 0 0 0 0 0 0 0 0 0 0 0 0 0 0 0 0 127 0" result="hardAlpha"/>
<feOffset/>
<feGaussianBlur stdDeviation="1"/>
<feColorMatrix type="matrix" values="0 0 0 0 0.0901961 0 0 0 0 0.101961 0 0 0 0 0.121569 0 0 0 0.12 0"/>
<feBlend mode="normal" in2="effect1_dropShadow_17_135" result="effect2_dropShadow_17_135"/>
<feBlend mode="normal" in="SourceGraphic" in2="effect2_dropShadow_17_135" result="shape"/>
</filter>
</defs>
</svg>
