<svg width="60" height="60" viewBox="0 0 60 60" fill="none" xmlns="http://www.w3.org/2000/svg">
<rect width="60" height="60" rx="6" fill="#B6B8F2"/>
<rect width="60" height="60" rx="6" stroke="#161A1E"/>
<path d="M30 42.6C30.497 42.6 30.9 42.1971 30.9 41.7C30.9 41.203 30.497 40.8 30 40.8C29.5029 40.8 29.1 41.203 29.1 41.7C29.1 42.1971 29.5029 42.6 30 42.6Z" fill="#636AE8"/>
<path d="M30 42.6C30.497 42.6 30.9 42.1971 30.9 41.7C30.9 41.203 30.497 40.8 30 40.8C29.5029 40.8 29.1 41.203 29.1 41.7C29.1 42.1971 29.5029 42.6 30 42.6Z" stroke="#636AE8" stroke-width="2.16" stroke-miterlimit="10" stroke-linecap="square"/>
<path d="M23.4033 18.48C25.7156 17.2466 28.2833 16.5687 30.903 16.5C35.853 16.5 38.103 19.2 38.103 23.0997C38.103 29.1 30.003 30 30.003 36.3" stroke="#636AE8" stroke-width="2.16" stroke-miterlimit="10" stroke-linecap="round"/>
</svg>
