<svg width="196" height="68" viewBox="0 0 196 68" fill="none" xmlns="http://www.w3.org/2000/svg">
<g clip-path="url(#clip0_17_121)">
<path d="M0 0H186C191.523 0 196 4.47715 196 10V58C196 63.5228 191.523 68 186 68H10C4.47715 68 0 63.5228 0 58V0Z" fill="#E1E1FB"/>
<path d="M13.233 28L13.233 17.8182H14.4659L14.4659 22.3523H19.8949L19.8949 17.8182L21.1278 17.8182L21.1278 28H19.8949V23.446H14.4659V28H13.233ZM23.4371 28L23.4371 20.3636H24.6104L24.6104 28H23.4371ZM24.0337 19.0909C23.805 19.0909 23.6078 19.013 23.4421 18.8572C23.2797 18.7015 23.1985 18.5142 23.1985 18.2955C23.1985 18.0767 23.2797 17.8894 23.4421 17.7337C23.6078 17.5779 23.805 17.5 24.0337 17.5C24.2624 17.5 24.458 17.5779 24.6204 17.7337C24.7861 17.8894 24.869 18.0767 24.869 18.2955C24.869 18.5142 24.7861 18.7015 24.6204 18.8572C24.458 19.013 24.2624 19.0909 24.0337 19.0909ZM32.248 17.8182L32.1486 25.1364H30.9952L30.8958 17.8182L32.248 17.8182ZM31.5719 28.0795C31.3266 28.0795 31.1162 27.9917 30.9405 27.8161C30.7649 27.6404 30.677 27.4299 30.677 27.1847C30.677 26.9394 30.7649 26.7289 30.9405 26.5533C31.1162 26.3776 31.3266 26.2898 31.5719 26.2898C31.8172 26.2898 32.0276 26.3776 32.2033 26.5533C32.379 26.7289 32.4668 26.9394 32.4668 27.1847C32.4668 27.3471 32.4254 27.4962 32.3425 27.6321C32.263 27.768 32.1552 27.8774 32.0194 27.9602C31.8868 28.0398 31.7376 28.0795 31.5719 28.0795ZM36.1445 17.8182L36.0451 25.1364H34.8917L34.7923 17.8182H36.1445ZM35.4684 28.0795C35.2231 28.0795 35.0127 27.9917 34.837 27.8161C34.6613 27.6404 34.5735 27.4299 34.5735 27.1847C34.5735 26.9394 34.6613 26.7289 34.837 26.5533C35.0127 26.3776 35.2231 26.2898 35.4684 26.2898C35.7137 26.2898 35.9241 26.3776 36.0998 26.5533C36.2754 26.7289 36.3633 26.9394 36.3633 27.1847C36.3633 27.3471 36.3219 27.4962 36.239 27.6321C36.1594 27.768 36.0517 27.8774 35.9158 27.9602C35.7833 28.0398 35.6341 28.0795 35.4684 28.0795ZM17.1307 39.8182H18.3636V47.0966C18.3636 47.7462 18.2443 48.2981 18.0057 48.7521C17.767 49.2062 17.4306 49.5509 16.9964 49.7862C16.5623 50.0215 16.0502 50.1392 15.4602 50.1392C14.9034 50.1392 14.4079 50.0381 13.9737 49.8359C13.5395 49.6304 13.1982 49.3388 12.9496 48.9609C12.701 48.5831 12.5767 48.134 12.5767 47.6136H13.7898C13.7898 47.902 13.861 48.1539 14.0036 48.3693C14.1494 48.5814 14.3482 48.7472 14.6001 48.8665C14.852 48.9858 15.1387 49.0455 15.4602 49.0455C15.8149 49.0455 16.1165 48.9709 16.3651 48.8217C16.6136 48.6726 16.8026 48.4538 16.9318 48.1655C17.0644 47.8738 17.1307 47.5175 17.1307 47.0966V39.8182ZM25.4879 46.8778V42.3636H26.6612V50L25.4879 50V48.7074H25.4084C25.2294 49.0952 24.951 49.425 24.5732 49.6967C24.1953 49.9652 23.718 50.0994 23.1413 50.0994C22.6641 50.0994 22.2398 49.995 21.8686 49.7862C21.4974 49.5741 21.2057 49.2559 20.9936 48.8317C20.7815 48.4041 20.6754 47.8655 20.6754 47.2159V42.3636H21.8487V47.1364C21.8487 47.6932 22.0045 48.1373 22.3161 48.4688C22.6309 48.8002 23.032 48.9659 23.5192 48.9659C23.8108 48.9659 24.1075 48.8913 24.4091 48.7422C24.714 48.593 24.9692 48.3643 25.1747 48.0561C25.3835 47.7479 25.4879 47.3551 25.4879 46.8778ZM34.2193 44.0739L33.1653 44.3722C33.099 44.1965 33.0012 44.0258 32.872 43.8601C32.746 43.6911 32.5737 43.5518 32.3549 43.4425C32.1362 43.3331 31.8561 43.2784 31.5147 43.2784C31.0474 43.2784 30.658 43.3861 30.3464 43.6016C30.0382 43.8137 29.8841 44.0838 29.8841 44.4119C29.8841 44.7036 29.9901 44.9339 30.2022 45.103C30.4144 45.272 30.7458 45.4129 31.1966 45.5256L32.3301 45.804C33.0128 45.9697 33.5216 46.2232 33.8564 46.5646C34.1911 46.9027 34.3585 47.3385 34.3585 47.8722C34.3585 48.3097 34.2325 48.7008 33.9806 49.0455C33.7321 49.3902 33.3841 49.6619 32.9366 49.8608C32.4892 50.0597 31.9688 50.1591 31.3755 50.1591C30.5967 50.1591 29.952 49.9901 29.4416 49.652C28.9312 49.3139 28.608 48.8201 28.4721 48.1705L29.5858 47.892C29.6918 48.303 29.8923 48.6113 30.1873 48.8168C30.4856 49.0223 30.8751 49.125 31.3556 49.125C31.9025 49.125 32.3367 49.009 32.6582 48.777C32.983 48.5417 33.1454 48.2599 33.1454 47.9318C33.1454 47.6667 33.0526 47.4446 32.867 47.2656C32.6814 47.0833 32.3964 46.9474 32.0119 46.858L30.7392 46.5597C30.0398 46.3939 29.5261 46.1371 29.198 45.7891C28.8732 45.4377 28.7108 44.9986 28.7108 44.4716C28.7108 44.0407 28.8317 43.6596 29.0737 43.3281C29.319 42.9967 29.652 42.7365 30.073 42.5476C30.4972 42.3587 30.9778 42.2642 31.5147 42.2642C32.2704 42.2642 32.8637 42.4299 33.2946 42.7614C33.7288 43.0928 34.037 43.5303 34.2193 44.0739ZM39.4457 42.3636V43.358H35.4883V42.3636H39.4457ZM36.6417 40.5341H37.815V47.8125C37.815 48.1439 37.863 48.3925 37.9592 48.5582C38.0586 48.7206 38.1845 48.83 38.337 48.8864C38.4928 48.9394 38.6568 48.9659 38.8292 48.9659C38.9585 48.9659 39.0645 48.9593 39.1474 48.946C39.2302 48.9295 39.2965 48.9162 39.3462 48.9063L39.5849 49.9602C39.5053 49.9901 39.3943 50.0199 39.2518 50.0497C39.1093 50.0829 38.9286 50.0994 38.7099 50.0994C38.3784 50.0994 38.0536 50.0282 37.7354 49.8857C37.4206 49.7431 37.1587 49.526 36.9499 49.2344C36.7444 48.9427 36.6417 48.5748 36.6417 48.1307V40.5341ZM47.3952 50.179C46.9113 50.179 46.4722 50.0878 46.0778 49.9055C45.6834 49.7199 45.3701 49.4531 45.1381 49.1051C44.9061 48.7538 44.7901 48.3295 44.7901 47.8324C44.7901 47.3949 44.8763 47.0402 45.0487 46.7685C45.221 46.4934 45.4513 46.2779 45.7397 46.1222C46.0281 45.9664 46.3462 45.8504 46.6942 45.7741C47.0456 45.6946 47.3986 45.6316 47.7532 45.5852C48.2172 45.5256 48.5934 45.4808 48.8817 45.451C49.1734 45.4179 49.3855 45.3632 49.5181 45.2869C49.654 45.2107 49.7219 45.0781 49.7219 44.8892V44.8494C49.7219 44.3589 49.5877 43.9777 49.3192 43.706C49.0541 43.4342 48.6514 43.2983 48.1112 43.2983C47.551 43.2983 47.1119 43.4209 46.7937 43.6662C46.4755 43.9115 46.2518 44.1733 46.1225 44.4517L45.0089 44.054C45.2077 43.59 45.4729 43.2287 45.8043 42.9702C46.1391 42.7083 46.5037 42.526 46.8981 42.4233C47.2958 42.3172 47.6869 42.2642 48.0714 42.2642C48.3166 42.2642 48.5984 42.294 48.9165 42.3537C49.238 42.41 49.5479 42.5277 49.8462 42.7067C50.1478 42.8857 50.3981 43.1558 50.5969 43.517C50.7958 43.8783 50.8952 44.3622 50.8952 44.9688V50H49.7219V48.9659H49.6623C49.5827 49.1316 49.4502 49.3089 49.2646 49.4979C49.079 49.6868 48.832 49.8475 48.5238 49.9801C48.2156 50.1127 47.8394 50.179 47.3952 50.179ZM47.5742 49.125C48.0382 49.125 48.4293 49.0339 48.7475 48.8516C49.069 48.6693 49.311 48.4339 49.4734 48.1456C49.6391 47.8572 49.7219 47.554 49.7219 47.2358V46.1619C49.6722 46.2216 49.5629 46.2763 49.3938 46.326C49.2281 46.3724 49.0359 46.4138 48.8171 46.4503C48.6017 46.4834 48.3912 46.5133 48.1857 46.5398C47.9835 46.563 47.8195 46.5829 47.6935 46.5994C47.3886 46.6392 47.1036 46.7038 46.8384 46.7933C46.5766 46.8795 46.3645 47.0104 46.2021 47.1861C46.043 47.3584 45.9634 47.5937 45.9634 47.892C45.9634 48.2997 46.1142 48.608 46.4158 48.8168C46.7208 49.0223 47.1069 49.125 47.5742 49.125ZM58.4458 44.0739L57.3919 44.3722C57.3256 44.1965 57.2278 44.0258 57.0985 43.8601C56.9726 43.6911 56.8002 43.5518 56.5815 43.4425C56.3627 43.3331 56.0827 43.2784 55.7413 43.2784C55.274 43.2784 54.8845 43.3861 54.573 43.6016C54.2647 43.8137 54.1106 44.0838 54.1106 44.4119C54.1106 44.7036 54.2167 44.9339 54.4288 45.103C54.6409 45.272 54.9724 45.4129 55.4231 45.5256L56.5566 45.804C57.2394 45.9697 57.7482 46.2232 58.0829 46.5646C58.4177 46.9027 58.585 47.3385 58.585 47.8722C58.585 48.3097 58.4591 48.7008 58.2072 49.0455C57.9586 49.3902 57.6106 49.6619 57.1632 49.8608C56.7157 50.0597 56.1954 50.1591 55.6021 50.1591C54.8232 50.1591 54.1786 49.9901 53.6681 49.652C53.1577 49.3139 52.8346 48.8201 52.6987 48.1705L53.8123 47.892C53.9184 48.303 54.1189 48.6113 54.4139 48.8168C54.7122 49.0223 55.1016 49.125 55.5822 49.125C56.1291 49.125 56.5633 49.009 56.8848 48.777C57.2096 48.5417 57.372 48.2599 57.372 47.9318C57.372 47.6667 57.2792 47.4446 57.0936 47.2656C56.908 47.0833 56.6229 46.9474 56.2385 46.858L54.9657 46.5597C54.2664 46.3939 53.7527 46.1371 53.4245 45.7891C53.0997 45.4377 52.9373 44.9986 52.9373 44.4716C52.9373 44.0407 53.0583 43.6596 53.3002 43.3281C53.5455 42.9967 53.8786 42.7365 54.2995 42.5476C54.7238 42.3587 55.2044 42.2642 55.7413 42.2642C56.497 42.2642 57.0903 42.4299 57.5211 42.7614C57.9553 43.0928 58.2636 43.5303 58.4458 44.0739ZM61.445 47.2159L61.4251 45.7642H61.6637L65.0046 42.3636H66.4563L62.8967 45.9631H62.7972L61.445 47.2159ZM60.3512 50V39.8182H61.5245V50H60.3512ZM65.2035 50L62.2205 46.2216L63.0558 45.4063L66.695 50H65.2035ZM72.6596 52.8636C72.4608 52.8636 72.2834 52.8471 72.1277 52.8139C71.9719 52.7841 71.8642 52.7543 71.8045 52.7244L72.1028 51.6903C72.3878 51.7633 72.6397 51.7898 72.8585 51.7699C73.0772 51.75 73.2711 51.6522 73.4402 51.4766C73.6125 51.3042 73.7699 51.0241 73.9125 50.6364L74.1312 50.0398L71.3074 42.3636H72.5801L74.688 48.4489H74.7676L76.8755 42.3636H78.1483L74.9068 51.1136C74.7609 51.508 74.5803 51.8345 74.3649 52.093C74.1494 52.3549 73.8992 52.5488 73.6142 52.6747C73.3324 52.8007 73.0143 52.8636 72.6596 52.8636ZM82.5257 50.1591C81.8364 50.1591 81.2315 49.995 80.7111 49.6669C80.1941 49.3388 79.7897 48.8797 79.498 48.2898C79.2097 47.6998 79.0655 47.0104 79.0655 46.2216C79.0655 45.4261 79.2097 44.7318 79.498 44.1385C79.7897 43.5452 80.1941 43.0845 80.7111 42.7564C81.2315 42.4283 81.8364 42.2642 82.5257 42.2642C83.2151 42.2642 83.8184 42.4283 84.3354 42.7564C84.8558 43.0845 85.2601 43.5452 85.5485 44.1385C85.8401 44.7318 85.986 45.4261 85.986 46.2216C85.986 47.0104 85.8401 47.6998 85.5485 48.2898C85.2601 48.8797 84.8558 49.3388 84.3354 49.6669C83.8184 49.995 83.2151 50.1591 82.5257 50.1591ZM82.5257 49.1051C83.0494 49.1051 83.4803 48.9709 83.8184 48.7024C84.1564 48.4339 84.4067 48.081 84.5691 47.6435C84.7315 47.206 84.8127 46.732 84.8127 46.2216C84.8127 45.7112 84.7315 45.2356 84.5691 44.7947C84.4067 44.3539 84.1564 43.9976 83.8184 43.7259C83.4803 43.4541 83.0494 43.3182 82.5257 43.3182C82.0021 43.3182 81.5712 43.4541 81.2331 43.7259C80.8951 43.9976 80.6448 44.3539 80.4824 44.7947C80.32 45.2356 80.2388 45.7112 80.2388 46.2216C80.2388 46.732 80.32 47.206 80.4824 47.6435C80.6448 48.081 80.8951 48.4339 81.2331 48.7024C81.5712 48.9709 82.0021 49.1051 82.5257 49.1051ZM92.5895 46.8778V42.3636H93.7628V50H92.5895V48.7074H92.5099C92.331 49.0952 92.0526 49.425 91.6747 49.6967C91.2969 49.9652 90.8196 50.0994 90.2429 50.0994C89.7656 50.0994 89.3414 49.995 88.9702 49.7862C88.599 49.5741 88.3073 49.2559 88.0952 48.8317C87.883 48.4041 87.777 47.8655 87.777 47.2159V42.3636H88.9503V47.1364C88.9503 47.6932 89.1061 48.1373 89.4176 48.4688C89.7325 48.8002 90.1335 48.9659 90.6207 48.9659C90.9124 48.9659 91.209 48.8913 91.5107 48.7422C91.8156 48.593 92.0708 48.3643 92.2763 48.0561C92.4851 47.7479 92.5895 47.3551 92.5895 46.8778ZM102.952 50.1591C102.262 50.1591 101.657 49.995 101.137 49.6669C100.62 49.3388 100.215 48.8797 99.9238 48.2898C99.6355 47.6998 99.4913 47.0104 99.4913 46.2216C99.4913 45.4261 99.6355 44.7318 99.9238 44.1385C100.215 43.5452 100.62 43.0845 101.137 42.7564C101.657 42.4283 102.262 42.2642 102.952 42.2642C103.641 42.2642 104.244 42.4283 104.761 42.7564C105.282 43.0845 105.686 43.5452 105.974 44.1385C106.266 44.7318 106.412 45.4261 106.412 46.2216C106.412 47.0104 106.266 47.6998 105.974 48.2898C105.686 48.8797 105.282 49.3388 104.761 49.6669C104.244 49.995 103.641 50.1591 102.952 50.1591ZM102.952 49.1051C103.475 49.1051 103.906 48.9709 104.244 48.7024C104.582 48.4339 104.832 48.081 104.995 47.6435C105.157 47.206 105.238 46.732 105.238 46.2216C105.238 45.7112 105.157 45.2356 104.995 44.7947C104.832 44.3539 104.582 43.9976 104.244 43.7259C103.906 43.4541 103.475 43.3182 102.952 43.3182C102.428 43.3182 101.997 43.4541 101.659 43.7259C101.321 43.9976 101.071 44.3539 100.908 44.7947C100.746 45.2356 100.665 45.7112 100.665 46.2216C100.665 46.732 100.746 47.206 100.908 47.6435C101.071 48.081 101.321 48.4339 101.659 48.7024C101.997 48.9709 102.428 49.1051 102.952 49.1051ZM109.376 45.4063V50H108.203V42.3636H109.336V43.5568H109.436C109.615 43.169 109.886 42.8575 110.251 42.6222C110.616 42.3835 111.086 42.2642 111.663 42.2642C112.18 42.2642 112.632 42.3703 113.02 42.5824C113.408 42.7912 113.71 43.1094 113.925 43.5369C114.141 43.9612 114.248 44.4981 114.248 45.1477V50L113.075 50V45.2273C113.075 44.6274 112.919 44.16 112.608 43.8253C112.296 43.4872 111.868 43.3182 111.325 43.3182C110.95 43.3182 110.616 43.3994 110.321 43.5618C110.029 43.7242 109.799 43.9612 109.63 44.2727C109.461 44.5843 109.376 44.9621 109.376 45.4063ZM119.594 50.1591C118.858 50.1591 118.223 49.9967 117.69 49.6719C117.16 49.3438 116.75 48.8864 116.462 48.2997C116.177 47.7098 116.034 47.0237 116.034 46.2415C116.034 45.4593 116.177 44.7699 116.462 44.1733C116.75 43.5734 117.151 43.1061 117.665 42.7713C118.182 42.4332 118.785 42.2642 119.475 42.2642C119.872 42.2642 120.265 42.3305 120.653 42.4631C121.041 42.5956 121.394 42.8111 121.712 43.1094C122.03 43.4044 122.284 43.7955 122.472 44.2827C122.661 44.7699 122.756 45.3698 122.756 46.0824V46.5795H116.869V45.5653H121.563C121.563 45.1345 121.477 44.75 121.304 44.4119C121.135 44.0739 120.893 43.8071 120.578 43.6115C120.267 43.416 119.899 43.3182 119.475 43.3182C119.007 43.3182 118.603 43.4342 118.262 43.6662C117.923 43.8949 117.663 44.1932 117.481 44.5611C117.299 44.929 117.208 45.3234 117.208 45.7443V46.4205C117.208 46.9972 117.307 47.486 117.506 47.8871C117.708 48.2848 117.988 48.5881 118.346 48.7969C118.704 49.0024 119.12 49.1051 119.594 49.1051C119.902 49.1051 120.181 49.062 120.429 48.9759C120.681 48.8864 120.898 48.7538 121.08 48.5781C121.263 48.3991 121.404 48.1771 121.503 47.9119L122.637 48.2301C122.517 48.6146 122.317 48.9527 122.035 49.2443C121.753 49.5327 121.405 49.758 120.991 49.9205C120.577 50.0795 120.111 50.1591 119.594 50.1591ZM18.2841 74.8636V70.8267H18.1847C18.0985 70.9659 17.9759 71.1416 17.8168 71.3537C17.6577 71.5625 17.4306 71.7498 17.1357 71.9155C16.8407 72.0779 16.4479 72.1591 15.9574 72.1591C15.321 72.1591 14.7592 71.9983 14.272 71.6768C13.7848 71.352 13.4036 70.8946 13.1286 70.3047C12.8535 69.7114 12.7159 69.0104 12.7159 68.2017C12.7159 67.3996 12.8535 66.7036 13.1286 66.1136C13.4036 65.5237 13.7865 65.0679 14.277 64.7464C14.7675 64.425 15.3343 64.2642 15.9773 64.2642C16.4744 64.2642 16.8672 64.3471 17.1555 64.5128C17.4472 64.6752 17.6693 64.8608 17.8217 65.0696C17.9775 65.2751 18.0985 65.4441 18.1847 65.5767H18.3239V64.3636H19.4574V74.8636H18.2841ZM16.1165 71.1051C16.5871 71.1051 16.9848 70.9825 17.3097 70.7372C17.6345 70.4886 17.8814 70.1456 18.0504 69.7081C18.2195 69.2673 18.304 68.7585 18.304 68.1818C18.304 67.6117 18.2211 67.1129 18.0554 66.6854C17.8897 66.2545 17.6444 65.9197 17.3196 65.6811C16.9948 65.4392 16.5938 65.3182 16.1165 65.3182C15.6193 65.3182 15.205 65.4458 14.8736 65.701C14.5455 65.9529 14.2985 66.2959 14.1328 66.7301C13.9704 67.161 13.8892 67.6449 13.8892 68.1818C13.8892 68.7254 13.9721 69.2192 14.1378 69.6634C14.3068 70.1042 14.5554 70.4555 14.8835 70.7173C15.215 70.9759 15.6259 71.1051 16.1165 71.1051ZM26.4176 68.8778V64.3636H27.5909V72H26.4176V70.7074H26.3381C26.1591 71.0952 25.8807 71.425 25.5028 71.6967C25.125 71.9652 24.6477 72.0994 24.071 72.0994C23.5937 72.0994 23.1695 71.995 22.7983 71.7862C22.4271 71.5741 22.1354 71.2559 21.9233 70.8317C21.7112 70.4041 21.6051 69.8655 21.6051 69.2159V64.3636H22.7784V69.1364C22.7784 69.6932 22.9342 70.1373 23.2457 70.4688C23.5606 70.8002 23.9616 70.9659 24.4489 70.9659C24.7405 70.9659 25.0372 70.8913 25.3388 70.7422C25.6437 70.593 25.8989 70.3643 26.1044 70.0561C26.3132 69.7479 26.4176 69.3551 26.4176 68.8778ZM32.9416 72.1591C32.2058 72.1591 31.5711 71.9967 31.0375 71.6719C30.5072 71.3438 30.0978 70.8864 29.8095 70.2997C29.5244 69.7098 29.3819 69.0237 29.3819 68.2415C29.3819 67.4593 29.5244 66.7699 29.8095 66.1733C30.0978 65.5734 30.4989 65.1061 31.0126 64.7713C31.5297 64.4332 32.1329 64.2642 32.8223 64.2642C33.22 64.2642 33.6127 64.3305 34.0005 64.4631C34.3883 64.5956 34.7413 64.8111 35.0595 65.1094C35.3777 65.4044 35.6312 65.7955 35.8201 66.2827C36.0091 66.7699 36.1035 67.3698 36.1035 68.0824V68.5795H30.2172V67.5653H34.9103C34.9103 67.1345 34.8242 66.75 34.6518 66.4119C34.4828 66.0739 34.2408 65.8071 33.926 65.6115C33.6144 65.416 33.2465 65.3182 32.8223 65.3182C32.3549 65.3182 31.9506 65.4342 31.6092 65.6662C31.2711 65.8949 31.0109 66.1932 30.8287 66.5611C30.6464 66.929 30.5552 67.3234 30.5552 67.7443V68.4205C30.5552 68.9972 30.6547 69.486 30.8535 69.8871C31.0557 70.2848 31.3358 70.5881 31.6937 70.7969C32.0517 71.0024 32.4676 71.1051 32.9416 71.1051C33.2498 71.1051 33.5282 71.062 33.7768 70.9759C34.0287 70.8864 34.2458 70.7538 34.4281 70.5781C34.6104 70.3991 34.7512 70.1771 34.8507 69.9119L35.9842 70.2301C35.8649 70.6146 35.6644 70.9527 35.3826 71.2443C35.1009 71.5327 34.7529 71.758 34.3386 71.9205C33.9243 72.0795 33.4586 72.1591 32.9416 72.1591ZM43.2974 66.0739L42.2434 66.3722C42.1771 66.1965 42.0794 66.0258 41.9501 65.8601C41.8242 65.6911 41.6518 65.5518 41.4331 65.4425C41.2143 65.3331 40.9342 65.2784 40.5929 65.2784C40.1255 65.2784 39.7361 65.3861 39.4245 65.6016C39.1163 65.8137 38.9622 66.0838 38.9622 66.4119C38.9622 66.7036 39.0682 66.9339 39.2804 67.103C39.4925 67.272 39.8239 67.4129 40.2747 67.5256L41.4082 67.804C42.091 67.9697 42.5997 68.2232 42.9345 68.5646C43.2692 68.9027 43.4366 69.3385 43.4366 69.8722C43.4366 70.3097 43.3107 70.7008 43.0588 71.0455C42.8102 71.3902 42.4622 71.6619 42.0147 71.8608C41.5673 72.0597 41.0469 72.1591 40.4537 72.1591C39.6748 72.1591 39.0301 71.9901 38.5197 71.652C38.0093 71.3139 37.6861 70.8201 37.5502 70.1705L38.6639 69.892C38.7699 70.303 38.9705 70.6113 39.2654 70.8168C39.5637 71.0223 39.9532 71.125 40.4338 71.125C40.9806 71.125 41.4148 71.009 41.7363 70.777C42.0611 70.5417 42.2235 70.2599 42.2235 69.9318C42.2235 69.6667 42.1307 69.4446 41.9451 69.2656C41.7595 69.0833 41.4745 68.9474 41.09 68.858L39.8173 68.5597C39.118 68.3939 38.6042 68.1371 38.2761 67.7891C37.9513 67.4377 37.7889 66.9986 37.7889 66.4716C37.7889 66.0407 37.9099 65.6596 38.1518 65.3281C38.3971 64.9967 38.7302 64.7365 39.1511 64.5476C39.5753 64.3587 40.0559 64.2642 40.5929 64.2642C41.3485 64.2642 41.9418 64.4299 42.3727 64.7614C42.8069 65.0928 43.1151 65.5303 43.2974 66.0739ZM48.5238 64.3636V65.358H44.5664V64.3636H48.5238ZM45.7198 62.5341H46.8931V69.8125C46.8931 70.1439 46.9412 70.3925 47.0373 70.5582C47.1367 70.7206 47.2627 70.83 47.4151 70.8864C47.5709 70.9394 47.735 70.9659 47.9073 70.9659C48.0366 70.9659 48.1426 70.9593 48.2255 70.946C48.3084 70.9295 48.3746 70.9162 48.4244 70.9062L48.663 71.9602C48.5835 71.9901 48.4724 72.0199 48.3299 72.0497C48.1874 72.0829 48.0067 72.0994 47.788 72.0994C47.4566 72.0994 47.1317 72.0282 46.8136 71.8857C46.4987 71.7431 46.2369 71.526 46.0281 71.2344C45.8226 70.9427 45.7198 70.5748 45.7198 70.1307V62.5341ZM50.2887 72V64.3636H51.462V72H50.2887ZM50.8853 63.0909C50.6566 63.0909 50.4594 63.013 50.2937 62.8572C50.1313 62.7015 50.0501 62.5142 50.0501 62.2955C50.0501 62.0767 50.1313 61.8894 50.2937 61.7337C50.4594 61.5779 50.6566 61.5 50.8853 61.5C51.114 61.5 51.3095 61.5779 51.4719 61.7337C51.6377 61.8894 51.7205 62.0767 51.7205 62.2955C51.7205 62.5142 51.6377 62.7015 51.4719 62.8572C51.3095 63.013 51.114 63.0909 50.8853 63.0909ZM56.7132 72.1591C56.0239 72.1591 55.419 71.995 54.8986 71.6669C54.3816 71.3388 53.9772 70.8797 53.6855 70.2898C53.3972 69.6998 53.253 69.0104 53.253 68.2216C53.253 67.4261 53.3972 66.7318 53.6855 66.1385C53.9772 65.5452 54.3816 65.0845 54.8986 64.7564C55.419 64.4283 56.0239 64.2642 56.7132 64.2642C57.4026 64.2642 58.0059 64.4283 58.5229 64.7564C59.0433 65.0845 59.4476 65.5452 59.736 66.1385C60.0276 66.7318 60.1735 67.4261 60.1735 68.2216C60.1735 69.0104 60.0276 69.6998 59.736 70.2898C59.4476 70.8797 59.0433 71.3388 58.5229 71.6669C58.0059 71.995 57.4026 72.1591 56.7132 72.1591ZM56.7132 71.1051C57.2369 71.1051 57.6678 70.9709 58.0059 70.7024C58.3439 70.4339 58.5942 70.081 58.7566 69.6435C58.919 69.206 59.0002 68.732 59.0002 68.2216C59.0002 67.7112 58.919 67.2356 58.7566 66.7947C58.5942 66.3539 58.3439 65.9976 58.0059 65.7259C57.6678 65.4541 57.2369 65.3182 56.7132 65.3182C56.1896 65.3182 55.7587 65.4541 55.4206 65.7259C55.0826 65.9976 54.8323 66.3539 54.6699 66.7947C54.5075 67.2356 54.4263 67.7112 54.4263 68.2216C54.4263 68.732 54.5075 69.206 54.6699 69.6435C54.8323 70.081 55.0826 70.4339 55.4206 70.7024C55.7587 70.9709 56.1896 71.1051 56.7132 71.1051ZM63.1378 67.4063V72H61.9645V64.3636H63.098V65.5568H63.1974C63.3764 65.169 63.6482 64.8575 64.0128 64.6222C64.3774 64.3835 64.848 64.2642 65.4247 64.2642C65.9418 64.2642 66.3942 64.3703 66.782 64.5824C67.1697 64.7912 67.4714 65.1094 67.6868 65.5369C67.9022 65.9612 68.0099 66.4981 68.0099 67.1477V72H66.8366V67.2273C66.8366 66.6274 66.6809 66.16 66.3693 65.8253C66.0578 65.4872 65.6302 65.3182 65.0866 65.3182C64.7121 65.3182 64.3774 65.3994 64.0824 65.5618C63.7907 65.7242 63.5604 65.9612 63.3913 66.2727C63.2223 66.5843 63.1378 66.9621 63.1378 67.4063Z" fill="#161A1E"/>
</g>
<defs>
<clipPath id="clip0_17_121">
<path d="M0 0H186C191.523 0 196 4.47715 196 10V58C196 63.5228 191.523 68 186 68H10C4.47715 68 0 63.5228 0 58V0Z" fill="white"/>
</clipPath>
</defs>
</svg>
