<svg width="16" height="16" viewBox="0 0 16 16" fill="none" xmlns="http://www.w3.org/2000/svg">
<g clip-path="url(#clip0_17_198)">
<path d="M15.5594 13.0396L10.5198 8.00004L15.5594 2.96044C16.256 2.26384 16.256 1.13724 15.5594 0.440639C14.8628 -0.255961 13.7362 -0.255961 13.0396 0.440639L7.99997 5.48024L2.95607 0.436339C2.25947 -0.255961 1.13287 -0.255961 0.436268 0.436339C-0.256032 1.13294 -0.256032 2.25954 0.436268 2.95614L5.47587 7.99574L0.436268 13.0396C-0.260332 13.7362 -0.260332 14.8628 0.436268 15.5594C1.13287 16.256 2.25947 16.256 2.95607 15.5594L7.99567 10.5198L13.0353 15.5594C13.7319 16.256 14.8585 16.256 15.5551 15.5594C16.2517 14.8628 16.2517 13.7362 15.5551 13.0396H15.5594Z" fill="#636AE8"/>
</g>
<defs>
<clipPath id="clip0_17_198">
<rect width="16" height="16" fill="white"/>
</clipPath>
</defs>
</svg>
