<svg width="139" height="106" viewBox="0 0 139 106" fill="none" xmlns="http://www.w3.org/2000/svg">
<g clip-path="url(#clip0_17_157)">
<path d="M20.9134 7.64477C20.2276 9.76019 19.222 11.823 18.9265 13.993C18.513 17.0965 18.2471 20.321 18.5492 23.4198C20.5035 42.8734 28.3324 59.9277 43.464 72.1033C58.8975 84.5378 77.1485 87.8434 96.3837 81.2424C106.016 77.941 114.656 72.7411 122.348 66.0041C123.742 64.7938 125.154 63.606 127.473 61.64C127.512 65.8097 127.537 68.9885 127.562 72.1674C127.983 72.2495 128.405 72.3316 128.814 72.4085C129.329 71.6463 130.029 70.95 130.305 70.1132C131.768 65.7364 133.159 61.3284 134.514 56.9049C135.371 54.0641 136.292 51.0085 133.903 48.5777C131.322 45.964 127.962 46.5388 125.022 47.7943C120.982 49.5161 117.086 51.6287 113.283 53.8243C112.499 54.2847 112.371 55.8702 111.943 56.9268C113.004 57.3428 114.197 58.3148 115.106 58.0939C117.938 57.4195 120.662 56.2993 123.483 55.3203C123.481 55.7194 123.58 56.019 123.475 56.1305C102.694 78.5606 76.6449 85.9704 50.4153 71.4395C49.1376 70.7304 47.9103 69.8718 46.8123 68.9122C30.9425 55.0762 22.3216 37.7081 21.566 16.6034C21.4626 13.8044 22.1729 10.9718 22.4961 8.14318C21.9703 7.97304 21.4324 7.7977 20.9013 7.63958L20.9134 7.64477Z" fill="#636AE8"/>
</g>
<defs>
<clipPath id="clip0_17_157">
<rect x="24.0273" y="0.669434" width="125" height="60" transform="rotate(23.37 24.0273 0.669434)" fill="white"/>
</clipPath>
</defs>
</svg>
