<svg width="105" height="90" viewBox="0 0 105 90" fill="none" xmlns="http://www.w3.org/2000/svg">
<g clip-path="url(#clip0_16_50)">
<path d="M48.8593 79.2764H46.4289C45.7135 79.2764 45.0324 79.5882 44.562 80.1326L35.8253 90.2731C34.3259 92.0151 31.4888 90.9412 31.4888 88.635V81.3154C31.4888 80.0732 30.5823 79.0389 29.3671 78.8458C12.7659 76.208 0.0748672 61.6926 0.0748672 44.188V34.869C0.0748672 15.4789 15.6324 -0.234222 34.8159 -0.234222H70.1792C89.3627 -0.234222 104.92 15.4789 104.92 34.869V36.5368V41.6888C104.92 62.4449 88.2602 79.2764 67.7047 79.2764H48.8593Z" fill="#E8618C"/>
<path d="M52.4949 63.3932C66.5971 63.3932 79.3371 54.4157 84.2028 41.0534C84.9525 38.9995 83.9088 36.7279 81.8753 35.9707C79.8418 35.2185 77.5878 36.2677 76.843 38.3215C73.1043 48.5808 63.319 55.4797 52.49 55.4797C41.661 55.4797 31.8757 48.5857 28.137 38.3265C27.3873 36.2726 25.1382 35.2234 23.1047 35.9757C21.0712 36.7279 20.0324 39.0045 20.7772 41.0583C25.6429 54.4206 38.3878 63.3981 52.4851 63.3981L52.4949 63.3932Z" fill="#636AE8"/>
</g>
<defs>
<clipPath id="clip0_16_50">
<rect width="105" height="90" fill="white"/>
</clipPath>
</defs>
</svg>
